<svg xmlns="http://www.w3.org/2000/svg" version="1.1" xmlns:xlink="http://www.w3.org/1999/xlink" xmlns:svgjs="http://svgjs.dev/svgjs" width="1440" height="200" preserveAspectRatio="none" viewBox="0 0 1440 200"><g mask="url(&quot;#SvgjsMask1003&quot;)" fill="none"><rect width="1440" height="200" x="0" y="0" fill="rgba(14, 42, 71, 1)"></rect><path d="M524 49L523 -81" stroke-width="10" stroke="url(&quot;#SvgjsLinearGradient1004&quot;)" stroke-linecap="round" class="Down"></path><path d="M495 89L494 151" stroke-width="8" stroke="url(&quot;#SvgjsLinearGradient1005&quot;)" stroke-linecap="round" class="Up"></path><path d="M859 128L858 44" stroke-width="10" stroke="url(&quot;#SvgjsLinearGradient1005&quot;)" stroke-linecap="round" class="Up"></path><path d="M191 51L190 -18" stroke-width="8" stroke="url(&quot;#SvgjsLinearGradient1005&quot;)" stroke-linecap="round" class="Up"></path><path d="M1340 116L1339 -11" stroke-width="10" stroke="url(&quot;#SvgjsLinearGradient1005&quot;)" stroke-linecap="round" class="Up"></path><path d="M495 77L494 -39" stroke-width="10" stroke="url(&quot;#SvgjsLinearGradient1005&quot;)" stroke-linecap="round" class="Up"></path><path d="M910 156L909 88" stroke-width="10" stroke="url(&quot;#SvgjsLinearGradient1004&quot;)" stroke-linecap="round" class="Down"></path><path d="M661 68L660 -61" stroke-width="6" stroke="url(&quot;#SvgjsLinearGradient1005&quot;)" stroke-linecap="round" class="Up"></path><path d="M53 156L52 48" stroke-width="10" stroke="url(&quot;#SvgjsLinearGradient1005&quot;)" stroke-linecap="round" class="Up"></path><path d="M800 4L799 129" stroke-width="10" stroke="url(&quot;#SvgjsLinearGradient1005&quot;)" stroke-linecap="round" class="Up"></path><path d="M1269 149L1268 262" stroke-width="8" stroke="url(&quot;#SvgjsLinearGradient1005&quot;)" stroke-linecap="round" class="Up"></path><path d="M1326 95L1325 9" stroke-width="6" stroke="url(&quot;#SvgjsLinearGradient1004&quot;)" stroke-linecap="round" class="Down"></path><path d="M770 156L769 221" stroke-width="10" stroke="url(&quot;#SvgjsLinearGradient1004&quot;)" stroke-linecap="round" class="Down"></path><path d="M690 0L689 129" stroke-width="8" stroke="url(&quot;#SvgjsLinearGradient1004&quot;)" stroke-linecap="round" class="Down"></path><path d="M926 188L925 244" stroke-width="6" stroke="url(&quot;#SvgjsLinearGradient1004&quot;)" stroke-linecap="round" class="Down"></path><path d="M463 149L462 280" stroke-width="6" stroke="url(&quot;#SvgjsLinearGradient1005&quot;)" stroke-linecap="round" class="Up"></path><path d="M277 67L276 202" stroke-width="10" stroke="url(&quot;#SvgjsLinearGradient1004&quot;)" stroke-linecap="round" class="Down"></path><path d="M890 114L889 231" stroke-width="6" stroke="url(&quot;#SvgjsLinearGradient1004&quot;)" stroke-linecap="round" class="Down"></path><path d="M647 185L646 313" stroke-width="6" stroke="url(&quot;#SvgjsLinearGradient1004&quot;)" stroke-linecap="round" class="Down"></path><path d="M197 54L196 199" stroke-width="6" stroke="url(&quot;#SvgjsLinearGradient1004&quot;)" stroke-linecap="round" class="Down"></path><path d="M856 37L855 -103" stroke-width="6" stroke="url(&quot;#SvgjsLinearGradient1005&quot;)" stroke-linecap="round" class="Up"></path><path d="M967 27L966 -52" stroke-width="6" stroke="url(&quot;#SvgjsLinearGradient1004&quot;)" stroke-linecap="round" class="Down"></path><path d="M285 29L284 -40" stroke-width="6" stroke="url(&quot;#SvgjsLinearGradient1005&quot;)" stroke-linecap="round" class="Up"></path><path d="M554 68L553 -4" stroke-width="10" stroke="url(&quot;#SvgjsLinearGradient1005&quot;)" stroke-linecap="round" class="Up"></path><path d="M716 25L715 113" stroke-width="8" stroke="url(&quot;#SvgjsLinearGradient1004&quot;)" stroke-linecap="round" class="Down"></path><path d="M969 53L968 151" stroke-width="8" stroke="url(&quot;#SvgjsLinearGradient1004&quot;)" stroke-linecap="round" class="Down"></path><path d="M421 30L420 -31" stroke-width="6" stroke="url(&quot;#SvgjsLinearGradient1004&quot;)" stroke-linecap="round" class="Down"></path><path d="M129 46L128 148" stroke-width="8" stroke="url(&quot;#SvgjsLinearGradient1004&quot;)" stroke-linecap="round" class="Down"></path><path d="M63 78L62 15" stroke-width="6" stroke="url(&quot;#SvgjsLinearGradient1004&quot;)" stroke-linecap="round" class="Down"></path><path d="M231 76L230 137" stroke-width="10" stroke="url(&quot;#SvgjsLinearGradient1004&quot;)" stroke-linecap="round" class="Down"></path><path d="M1124 80L1123 157" stroke-width="6" stroke="url(&quot;#SvgjsLinearGradient1005&quot;)" stroke-linecap="round" class="Up"></path><path d="M738 73L737 -72" stroke-width="10" stroke="url(&quot;#SvgjsLinearGradient1004&quot;)" stroke-linecap="round" class="Down"></path><path d="M1031 65L1030 -41" stroke-width="6" stroke="url(&quot;#SvgjsLinearGradient1004&quot;)" stroke-linecap="round" class="Down"></path><path d="M1154 59L1153 -82" stroke-width="10" stroke="url(&quot;#SvgjsLinearGradient1005&quot;)" stroke-linecap="round" class="Up"></path><path d="M269 110L268 254" stroke-width="8" stroke="url(&quot;#SvgjsLinearGradient1004&quot;)" stroke-linecap="round" class="Down"></path><path d="M834 190L833 102" stroke-width="10" stroke="url(&quot;#SvgjsLinearGradient1004&quot;)" stroke-linecap="round" class="Down"></path></g><defs><mask id="SvgjsMask1003"><rect width="1440" height="200" fill="#ffffff"></rect></mask><linearGradient x1="0%" y1="0%" x2="0%" y2="100%" id="SvgjsLinearGradient1004"><stop stop-color="rgba(28, 83, 142, 0)" offset="0"></stop><stop stop-color="rgba(28, 83, 142, 1)" offset="1"></stop></linearGradient><linearGradient x1="0%" y1="100%" x2="0%" y2="0%" id="SvgjsLinearGradient1005"><stop stop-color="rgba(28, 83, 142, 0)" offset="0"></stop><stop stop-color="rgba(28, 83, 142, 1)" offset="1"></stop></linearGradient></defs></svg>